/* XPM */
static char * close_inactive_xpm[] = {
"16 26 85 1",
" 	c #141415",
".	c #6F7072",
"+	c #58595C",
"@	c #57585B",
"#	c #56575A",
"$	c #565759",
"%	c #555659",
"&	c #545558",
"*	c #535457",
"=	c #545557",
"-	c #525355",
";	c #444446",
">	c #38393A",
",	c #343436",
"'	c #38383A",
")	c #4E4F52",
"!	c #38393B",
"~	c #323234",
"{	c #303032",
"]	c #525356",
"^	c #515255",
"/	c #313133",
"(	c #3B3C3E",
"_	c #646567",
":	c #737476",
"<	c #656668",
"[	c #404042",
"}	c #444447",
"|	c #39393B",
"1	c #6B6C6E",
"2	c #606164",
"3	c #5B5B5E",
"4	c #6B6C6F",
"5	c #3A3B3D",
"6	c #434446",
"7	c #515254",
"8	c #3A3B3C",
"9	c #313132",
"0	c #5B5B5D",
"a	c #5A5B5D",
"b	c #58595B",
"c	c #595A5C",
"d	c #5B5C5E",
"e	c #303132",
"f	c #393A3C",
"g	c #505154",
"h	c #363638",
"i	c #2F3031",
"j	c #5B5C5F",
"k	c #5D5E60",
"l	c #353638",
"m	c #4F5053",
"n	c #363739",
"o	c #4F5052",
"p	c #3C3D3E",
"q	c #444547",
"r	c #3B3C3D",
"s	c #494A4C",
"t	c #333436",
"u	c #4B4C4F",
"v	c #313234",
"w	c #4D4E51",
"x	c #595A5D",
"y	c #3C3D3F",
"z	c #303133",
"A	c #404043",
"B	c #494A4D",
"C	c #404143",
"D	c #4D4E50",
"E	c #5C5C5E",
"F	c #3E3E40",
"G	c #313233",
"H	c #333435",
"I	c #3D3E40",
"J	c #4C4D4F",
"K	c #5F6062",
"L	c #505152",
"M	c #404142",
"N	c #393A3B",
"O	c #4C4D50",
"P	c #4B4C4E",
"Q	c #4A4B4D",
"R	c #48494C",
"S	c #48494B",
"T	c #47484A",
"                ",
"................",
"+@@@@@@@@@@@@@@@",
"################",
"$$$$$$$$$$$$$$$$",
"%%%%%%%%%%%%%%%%",
"&&&&&&&**&&&&&&&",
"====-;>,,';-====",
"***)!~{~~{~')***",
"]]^!/(_::<[/'^]]",
"^^}~|1233245~6^^",
"77890abbbbcdef77",
"gghij######kilgg",
"m^ni^&&&&&&]il^m",
"o=p9q------q9r=o",
")*st~ugggguvts*)",
"w)xy~zABBCv~yx)w",
"DD-EF,Ge{GHId-DD",
"JJJ-KLMNNMLK-JJJ",
"uuuuOLLLLLLOuuuu",
"PPPPPPPPPPPPPPPP",
"QQQQQQQQQQQQQQQQ",
"ssssssssssssssss",
"RRRRRRRRRRRRRRRR",
"SSSSSSSSSSSSSSSS",
"TTTTTTTTTTTTTTTT"};
