/* XPM */
static char * close_pressed_xpm[] = {
"16 26 87 1",
" 	c #141415",
".	c #6F7072",
"+	c #424447",
"@	c #414346",
"#	c #404246",
"$	c #404245",
"%	c #3F4144",
"&	c #3D3F42",
"*	c #3C3D40",
"=	c #313132",
"-	c #1C1C1D",
";	c #161617",
">	c #303132",
",	c #3E4044",
"'	c #37393C",
")	c #181819",
"!	c #1B1B1C",
"~	c #1B1C1D",
"{	c #37383C",
"]	c #3E3F43",
"^	c #3C3D41",
"/	c #1C1D1E",
"(	c #19191A",
"_	c #242526",
":	c #3B3D40",
"<	c #333335",
"[	c #171718",
"}	c #B5B5B5",
"|	c #7F7F80",
"1	c #1D1D1E",
"2	c #79797A",
"3	c #B9B9BA",
"4	c #313233",
"5	c #1F1F20",
"6	c #191A1A",
"7	c #696969",
"8	c #BABABB",
"9	c #818181",
"0	c #7D7D7D",
"a	c #727272",
"b	c #1A1A1B",
"c	c #1E1E1F",
"d	c #3C3E42",
"e	c #1A1B1C",
"f	c #6A6A6B",
"g	c #737474",
"h	c #7E7E7F",
"i	c #BABABA",
"j	c #858586",
"k	c #161717",
"l	c #414345",
"m	c #222323",
"n	c #181919",
"o	c #1A1B1B",
"p	c #7A7A7B",
"q	c #6B6B6C",
"r	c #676767",
"s	c #202121",
"t	c #3C3D3F",
"u	c #151617",
"v	c #AAAAAA",
"w	c #666767",
"x	c #636364",
"y	c #ABACAC",
"z	c #3A3B3D",
"A	c #3A3C40",
"B	c #484A4D",
"C	c #222223",
"D	c #161718",
"E	c #212122",
"F	c #3A3C3F",
"G	c #404244",
"H	c #484A4C",
"I	c #242525",
"J	c #151516",
"K	c #181818",
"L	c #48494B",
"M	c #3A3B3E",
"N	c #6A6B6C",
"O	c #3B3D3F",
"P	c #282929",
"Q	c #282829",
"R	c #3D3E40",
"S	c #393B3E",
"T	c #3A3B3F",
"U	c #383A3D",
"V	c #393A3D",
"                ",
"................",
"+@@@@@@@@@@@@@@@",
"################",
"$$$$$$$$$$$$$$$$",
"$$$$$$$$$$$$$$$$",
"%%%%%%%&&%%%%%%%",
"%%%%*=-;;->*%%%%",
",,,'-)!--!)~{,,,",
"]]^/(_~~~~_(-:]]",
"&&<[!}|1-231[4&&",
"&&56!78908a!bc&&",
"dd[e!!f88g!!e;dd",
"^])be~hiij1ebk]^",
"*lmnopiqri9o(s@*",
":$tubvwbbxy-uz#:",
"A:BCDbbbbbbDEB:A",
"FFGHIJK((KJmLGFF",
"MMMGNOP!!QRNGMMM",
"SSSSTOOOOOOASSSS",
"SSSSSSSSSSSSSSSS",
"UUUUUUUUUUUUUUUU",
"''''''''''''''''",
"''''''''''''''''",
"''''''''''''''''",
"VVVVVVVVVVVVVVVV"};
