/* XPM */
static char * close_prelight_xpm[] = {
"16 26 89 1",
" 	c #141415",
".	c #6F7072",
"+	c #424447",
"@	c #414346",
"#	c #404246",
"$	c #404245",
"%	c #3F4144",
"&	c #3E3F43",
"*	c #3C3E41",
"=	c #343436",
"-	c #212122",
";	c #1B1B1C",
">	c #202021",
",	c #333435",
"'	c #3E4044",
")	c #383A3D",
"!	c #1D1E1F",
"~	c #222324",
"{	c #202122",
"]	c #37393C",
"^	c #3C3D41",
"/	c #1F1F20",
"(	c #2F2F30",
"_	c #222223",
":	c #2E2E2F",
"<	c #3D3F42",
"[	c #353638",
"}	c #1C1D1E",
"|	c #212223",
"1	c #F6F6F6",
"2	c #AEAEAF",
"3	c #242426",
"4	c #A3A3A4",
"5	c #FEFEFE",
"6	c #252526",
"7	c #333436",
"8	c #232324",
"9	c #1F2021",
"0	c #8C8C8D",
"a	c #FFFFFF",
"b	c #B1B1B1",
"c	c #A8A8A9",
"d	c #9B9B9B",
"e	c #3C3E42",
"f	c #1C1C1D",
"g	c #212123",
"h	c #909191",
"i	c #9D9E9E",
"j	c #202022",
"k	c #AAABAB",
"l	c #B7B7B7",
"m	c #252527",
"n	c #3C3D40",
"o	c #414345",
"p	c #262627",
"q	c #1E1F20",
"r	c #A6A6A7",
"s	c #929292",
"t	c #8A8A8B",
"u	c #AFB0B0",
"v	c #3B3D40",
"w	c #3F4042",
"x	c #1A1B1C",
"y	c #E7E7E8",
"z	c #8C8C8C",
"A	c #858586",
"B	c #EBEBEB",
"C	c #242425",
"D	c #3D3E40",
"E	c #3A3C40",
"F	c #484A4D",
"G	c #252627",
"H	c #1B1C1D",
"I	c #3A3C3F",
"J	c #404244",
"K	c #494B4D",
"L	c #272829",
"M	c #1A1A1B",
"N	c #1D1D1E",
"O	c #1D1E1E",
"P	c #272728",
"Q	c #48494C",
"R	c #3A3B3E",
"S	c #383A3C",
"T	c #2B2C2D",
"U	c #1F2020",
"V	c #393B3E",
"W	c #3A3B3F",
"X	c #36383B",
"                ",
"................",
"+@@@@@@@@@@@@@@@",
"################",
"$$$$$$$$$$$$$$$$",
"$$$$$$$$$$$$$$$$",
"%%%%%%%&&%%%%%%%",
"%%%%*=-;;>,*%%%%",
"''')-!-~~-!{]'''",
"&&^-/(____:/{^&&",
"<<[}|123~456}7<<",
"<<89|0abcad|>_<<",
"eef-gghaaigg-;ee",
"^&}j-~kaalm-{;&^",
"nopq-rastau-q6@n",
"v$wx{yz{{ABC;D#v",
"EvFGH>>>>>>H6FvE",
"IIJKLMN//OMPQJII",
"RRRSSSTUUT]SSRRR",
"VVVVWSSSSSSSVVVV",
"VVVVVVVVVVVVVVVV",
"))))))))))))))))",
"]]]]]]]]]]]]]]]]",
"]]]]]]]]]]]]]]]]",
"]]]]]]]]]]]]]]]]",
"XXXXXXXXXXXXXXXX"};
