/* XPM */
static char * hide_prelight_xpm[] = {
"16 26 66 1",
" 	c #141415",
".	c #6F7072",
"+	c #424447",
"@	c #414346",
"#	c #404246",
"$	c #404245",
"%	c #3F4144",
"&	c #3E3F43",
"*	c #3C3E41",
"=	c #343436",
"-	c #212122",
";	c #1B1B1C",
">	c #202021",
",	c #333435",
"'	c #3E4044",
")	c #383A3D",
"!	c #1D1E1F",
"~	c #222324",
"{	c #202122",
"]	c #37393C",
"^	c #3C3D41",
"/	c #1F1F20",
"(	c #222223",
"_	c #3D3F42",
":	c #353638",
"<	c #1C1D1E",
"[	c #212223",
"}	c #333436",
"|	c #232324",
"1	c #1F2021",
"2	c #343536",
"3	c #3C3E42",
"4	c #1C1C1D",
"5	c #212123",
"6	c #FCFCFC",
"7	c #FFFFFF",
"8	c #242526",
"9	c #202022",
"0	c #E9E9E9",
"a	c #EDEDED",
"b	c #232425",
"c	c #3C3D40",
"d	c #414345",
"e	c #262627",
"f	c #1E1F20",
"g	c #252526",
"h	c #3B3D40",
"i	c #3F4042",
"j	c #1A1B1C",
"k	c #3D3E40",
"l	c #3A3C40",
"m	c #383A3C",
"n	c #252627",
"o	c #1B1C1D",
"p	c #3A3C3F",
"q	c #272829",
"r	c #1A1A1B",
"s	c #1D1D1E",
"t	c #1D1E1E",
"u	c #272728",
"v	c #3A3B3E",
"w	c #2B2C2D",
"x	c #1F2020",
"y	c #393B3E",
"z	c #3A3B3F",
"A	c #36383B",
"                ",
"................",
"+@@@@@@@@@@@@@@@",
"################",
"$$$$$$$$$$$$$$$$",
"$$$$$$$$$$$$$$$$",
"%%%%%%%&&%%%%%%%",
"%%%%*=-;;>,*%%%%",
"''')-!-~~-!{]'''",
"&&^-/((((((/{^&&",
"__:<[[[[[[[[<}__",
"__|1[,22222[>(__",
"334-56777778-;33",
"^&<9-0aaaaab{;&^",
"cdef--------fg@c",
"h$ij{{{{{{{{;k#h",
"lhmno>>>>>>ogmhl",
"ppmmqrs//trummpp",
"vvvmmmwxxwmmmvvv",
"yyyyzmmmmmmlyyyy",
"yyyyyyyyyyyyyyyy",
"))))))))))))))))",
"]]]]]]]]]]]]]]]]",
"]]]]]]]]]]]]]]]]",
"]]]]]]]]]]]]]]]]",
"AAAAAAAAAAAAAAAA"};
