/* XPM */
static char * hide_active_xpm[] = {
"16 26 94 2",
"  	c #141415",
". 	c #6F7072",
"+ 	c #424447",
"@ 	c #414346",
"# 	c #404246",
"$ 	c #404245",
"% 	c #3F4144",
"& 	c #3E3F43",
"* 	c #3D3F42",
"= 	c #393A3B",
"- 	c #272728",
"; 	c #202021",
"> 	c #262728",
", 	c #3E4044",
"' 	c #3A3B3E",
") 	c #272829",
"! 	c #1D1E1F",
"~ 	c #1A1A1B",
"{ 	c #1E1E1F",
"] 	c #272729",
"^ 	c #393B3E",
"/ 	c #3C3E42",
"( 	c #28292A",
"_ 	c #1C1C1D",
": 	c #323233",
"< 	c #7C7D7F",
"[ 	c #979799",
"} 	c #808082",
"| 	c #38393A",
"1 	c #3B3C3E",
"2 	c #1E1F20",
"3 	c #2D2D2E",
"4 	c #88898B",
"5 	c #79797C",
"6 	c #707174",
"7 	c #78797B",
"8 	c #89898B",
"9 	c #2F3031",
"0 	c #3A3B3D",
"a 	c #2C2C2D",
"b 	c #1C1D1D",
"c 	c #6A6B6C",
"d 	c #6C6D6F",
"e 	c #6A6B6D",
"f 	c #6C6D6E",
"g 	c #2B2B2C",
"h 	c #252527",
"i 	c #1B1B1C",
"j 	c #656568",
"k 	c #6F6F72",
"l 	c #242526",
"m 	c #3C3D41",
"n 	c #1B1C1D",
"o 	c #5B5C5E",
"p 	c #5F6063",
"q 	c #5D5E61",
"r 	c #252627",
"s 	c #3C3D40",
"t 	c #414345",
"u 	c #303132",
"v 	c #424344",
"w 	c #424345",
"x 	c #3B3D40",
"y 	c #393A3D",
"z 	c #222324",
"A 	c #212223",
"B 	c #4E4E51",
"C 	c #555659",
"D 	c #4E4F52",
"E 	c #212122",
"F 	c #3A3C40",
"G 	c #484A4D",
"H 	c #323335",
"I 	c #212123",
"J 	c #37383A",
"K 	c #47484A",
"L 	c #48484B",
"M 	c #38383B",
"N 	c #313233",
"O 	c #3A3C3F",
"P 	c #404244",
"Q 	c #4A4C4F",
"R 	c #353536",
"S 	c #242425",
"T 	c #232425",
"U 	c #333435",
"V 	c #4A4C4E",
"W 	c #3E4042",
"X 	c #39393B",
"Y 	c #2E2F30",
"Z 	c #3A3B3F",
"` 	c #383A3D",
" .	c #37393C",
"..	c #36383B",
"                                ",
". . . . . . . . . . . . . . . . ",
"+ @ @ @ @ @ @ @ @ @ @ @ @ @ @ @ ",
"# # # # # # # # # # # # # # # # ",
"$ $ $ $ $ $ $ $ $ $ $ $ $ $ $ $ ",
"$ $ $ $ $ $ $ $ $ $ $ $ $ $ $ $ ",
"% % % % % % % & & % % % % % % % ",
"% % % % * = - ; ; > = * % % % % ",
", , , ' ) ! ~ { { ~ ! ] ^ , , , ",
"& & / ( _ : < [ [ } | _ ) / & & ",
"* * 1 2 3 4 5 6 6 7 8 9 2 0 * * ",
"* * a b c d e e e e d f _ g * * ",
"/ / h i d j j j j j j k i l / / ",
"m & > n o p p p p p p q i r & m ",
"s t u { v o o o o o o w { 9 @ s ",
"x $ y z A B C C C C D E z ' # x ",
"F x G H I 2 J K L M 2 E N G x F ",
"O O P Q R S ; { { ; T U V P O O ",
"' ' ' W W W X Y Y | W W W ' ' ' ",
"^ ^ ^ ^ Z W W W W W W F ^ ^ ^ ^ ",
"^ ^ ^ ^ ^ ^ ^ ^ ^ ^ ^ ^ ^ ^ ^ ^ ",
"` ` ` ` ` ` ` ` ` ` ` ` ` ` ` ` ",
" . . . . . . . . . . . . . . . .",
" . . . . . . . . . . . . . . . .",
" . . . . . . . . . . . . . . . .",
"................................"};
