/* XPM */
static char * maximize_pressed_xpm[] = {
"16 26 86 1",
" 	c #141415",
".	c #6F7072",
"+	c #424447",
"@	c #414346",
"#	c #404246",
"$	c #404245",
"%	c #3F4144",
"&	c #3D3F42",
"*	c #3C3D40",
"=	c #313132",
"-	c #1C1C1D",
";	c #161617",
">	c #303132",
",	c #3E4044",
"'	c #37393C",
")	c #181819",
"!	c #1B1B1C",
"~	c #1B1C1D",
"{	c #37383C",
"]	c #3E3F43",
"^	c #3C3D41",
"/	c #1C1D1E",
"(	c #19191A",
"_	c #262627",
":	c #1E1E1F",
"<	c #3B3D40",
"[	c #333335",
"}	c #171718",
"|	c #79797A",
"1	c #BABABB",
"2	c #A6A7A7",
"3	c #313233",
"4	c #1F1F20",
"5	c #191A1A",
"6	c #222223",
"7	c #797979",
"8	c #1A1A1B",
"9	c #3C3E42",
"0	c #1A1B1C",
"a	c #949494",
"b	c #232324",
"c	c #777778",
"d	c #1D1E1F",
"e	c #B9B9B9",
"f	c #959596",
"g	c #222324",
"h	c #1D1D1E",
"i	c #161717",
"j	c #414345",
"k	c #222323",
"l	c #181919",
"m	c #1A1B1B",
"n	c #BABABA",
"o	c #939494",
"p	c #212222",
"q	c #1B1C1C",
"r	c #202121",
"s	c #3C3D3F",
"t	c #151617",
"u	c #8D8D8E",
"v	c #AFAFB0",
"w	c #888989",
"x	c #1E1F20",
"y	c #3A3B3D",
"z	c #3A3C40",
"A	c #484A4D",
"B	c #161718",
"C	c #212122",
"D	c #3A3C3F",
"E	c #404244",
"F	c #484A4C",
"G	c #242525",
"H	c #151516",
"I	c #181818",
"J	c #48494B",
"K	c #3A3B3E",
"L	c #6A6B6C",
"M	c #393A3D",
"N	c #282929",
"O	c #282829",
"P	c #3A3C3E",
"Q	c #393B3E",
"R	c #3A3B3F",
"S	c #383A3C",
"T	c #383A3D",
"U	c #36383B",
"                ",
"................",
"+@@@@@@@@@@@@@@@",
"################",
"$$$$$$$$$$$$$$$$",
"$$$$$$$$$$$$$$$$",
"%%%%%%%&&%%%%%%%",
"%%%%*=-;;->*%%%%",
",,,'-)!--!)~{,,,",
"]]^/(~/___:(-<]]",
"&&[}!!-|112-}3&&",
"&&45!6!-711:8:&&",
"99}0!ab!-c1d0;99",
"^])80efg0~ch8i]^",
"*jklmenopmqm(r@*",
"<$st8uvvwx88ty#<",
"z<A6B888888BCA<z",
"DDEFGHI((IHkJEDD",
"KKKELMN!!OPLEKKK",
"QQQQRSSSSSSzQQQQ",
"QQQQQQQQQQQQQQQQ",
"TTTTTTTTTTTTTTTT",
"''''''''''''''''",
"''''''''''''''''",
"''''''''''''''''",
"UUUUUUUUUUUUUUUU"};
