/* XPM */
static char * maximize_prelight_xpm[] = {
"16 26 83 1",
" 	c #141415",
".	c #6F7072",
"+	c #424447",
"@	c #414346",
"#	c #404246",
"$	c #404245",
"%	c #3F4144",
"&	c #3E3F43",
"*	c #3C3E41",
"=	c #343436",
"-	c #212122",
";	c #1B1B1C",
">	c #202021",
",	c #333435",
"'	c #3E4044",
")	c #383A3D",
"!	c #1D1E1F",
"~	c #222324",
"{	c #202122",
"]	c #37393C",
"^	c #3C3D41",
"/	c #1F1F20",
"(	c #222223",
"_	c #232425",
":	c #313132",
"<	c #272829",
"[	c #3D3F42",
"}	c #353638",
"|	c #1C1D1E",
"1	c #212223",
"2	c #A5A5A5",
"3	c #FFFFFF",
"4	c #E4E4E4",
"5	c #333436",
"6	c #232324",
"7	c #1F2021",
"8	c #2B2B2C",
"9	c #252526",
"0	c #3C3E42",
"a	c #1C1C1D",
"b	c #212123",
"c	c #C9C9CA",
"d	c #2C2D2E",
"e	c #222224",
"f	c #A2A2A2",
"g	c #242526",
"h	c #202022",
"i	c #FCFCFC",
"j	c #CBCCCC",
"k	c #2C2C2E",
"l	c #242426",
"m	c #3C3D40",
"n	c #414345",
"o	c #262627",
"p	c #1E1F20",
"q	c #C9C9C9",
"r	c #3B3D40",
"s	c #3F4042",
"t	c #1A1B1C",
"u	c #BFBFC0",
"v	c #F0F0F0",
"w	c #BABABB",
"x	c #262728",
"y	c #3D3E40",
"z	c #3A3C40",
"A	c #484A4D",
"B	c #252627",
"C	c #1B1C1D",
"D	c #3A3C3F",
"E	c #404244",
"F	c #494B4D",
"G	c #1A1A1B",
"H	c #1D1D1E",
"I	c #1D1E1E",
"J	c #272728",
"K	c #48494C",
"L	c #3A3B3E",
"M	c #383A3C",
"N	c #2B2C2D",
"O	c #1F2020",
"P	c #393B3E",
"Q	c #3A3B3F",
"R	c #393A3D",
"                ",
"................",
"+@@@@@@@@@@@@@@@",
"################",
"$$$$$$$$$$$$$$$$",
"$$$$$$$$$$$$$$$$",
"%%%%%%%&&%%%%%%%",
"%%%%*=-;;>,*%%%%",
"''')-!-~~-!{]'''",
"&&^-/(_:::</{^&&",
"[[}|11~2334~|5[[",
"[[67181~2339>([[",
"00a-bcdbef3g-;00",
"^&|h-ijk-(fl{;&^",
"mnop-i3q8-(-p9@m",
"r$st{uvvwx{{;y#r",
"zrABC>>>>>>C9Arz",
"DDEF<GH//IGJKEDD",
"LLLMMMNOON]MMLLL",
"PPPPQMMMMMMzPPPP",
"PPPPPPPPPPPPPPPP",
"))))))))))))))))",
"]]]]]]]]]]]]]]]]",
"]]]]]]]]]]]]]]]]",
"]]]]]]]]]]]]]]]]",
"RRRRRRRRRRRRRRRR"};
