/* XPM */
static char * menu_prelight_xpm[] = {
"16 26 97 2",
"  	c #141415",
". 	c #6F7072",
"+ 	c #424447",
"@ 	c #414346",
"# 	c #404246",
"$ 	c #404245",
"% 	c #3F4144",
"& 	c #3D3F42",
"* 	c #3C3C3E",
"= 	c #242526",
"- 	c #181919",
"; 	c #1A1A1B",
"> 	c #272829",
", 	c #404142",
"' 	c #3E3F42",
") 	c #3E4044",
"! 	c #37393C",
"~ 	c #222324",
"{ 	c #1A1A1A",
"] 	c #242425",
"^ 	c #252527",
"/ 	c #171719",
"( 	c #292A2B",
"_ 	c #3A3B3F",
": 	c #3E3F43",
"< 	c #37393D",
"[ 	c #242527",
"} 	c #1E1E1F",
"| 	c #2A2A2C",
"1 	c #2E2E30",
"2 	c #313133",
"3 	c #303032",
"4 	c #29292B",
"5 	c #2B2B2D",
"6 	c #3A3C40",
"7 	c #3C3D41",
"8 	c #353537",
"9 	c #1B1B1C",
"0 	c #2C2C2E",
"a 	c #2A2B2D",
"b 	c #3C3D3F",
"c 	c #383A3D",
"d 	c #222223",
"e 	c #272729",
"f 	c #777779",
"g 	c #D7D7D8",
"h 	c #CFCFD0",
"i 	c #5F5F61",
"j 	c #252526",
"k 	c #3C3E42",
"l 	c #393A3D",
"m 	c #181818",
"n 	c #4D4D4F",
"o 	c #FCFCFC",
"p 	c #FFFFFF",
"q 	c #EEEEEE",
"r 	c #2C2C2F",
"s 	c #141414",
"t 	c #151516",
"u 	c #6D6D6E",
"v 	c #484849",
"w 	c #303031",
"x 	c #111111",
"y 	c #3C3D40",
"z 	c #3A3C3F",
"A 	c #1E1E1E",
"B 	c #3F3F41",
"C 	c #ECECED",
"D 	c #D4D4D5",
"E 	c #323234",
"F 	c #2D2D2E",
"G 	c #1B1B1B",
"H 	c #3B3D40",
"I 	c #2D2E2F",
"J 	c #272728",
"K 	c #4C4C4D",
"L 	c #9E9E9F",
"M 	c #959596",
"N 	c #3E3E40",
"O 	c #3B3C3D",
"P 	c #1D1D20",
"Q 	c #2D2D2F",
"R 	c #1B1B1D",
"S 	c #383839",
"T 	c #212123",
"U 	c #29292C",
"V 	c #2F2F30",
"W 	c #28282B",
"X 	c #202022",
"Y 	c #3F4041",
"Z 	c #3A3B3E",
"` 	c #3B3B3D",
" .	c #2A2A2B",
"..	c #212223",
"+.	c #262626",
"@.	c #2B2B2C",
"#.	c #393B3E",
"                                ",
". . . . . . . . . . . . . . . . ",
"+ @ @ @ @ @ @ @ @ @ @ @ @ @ @ @ ",
"# # # # # # # # # # # # # # # # ",
"$ $ $ $ $ $ $ $ $ $ $ $ $ $ $ $ ",
"$ $ $ $ $ $ $ $ $ $ $ $ $ $ $ $ ",
"% % % % % % % % % % % % % % % % ",
"% % % % & * = - ; > , ' % % % % ",
") ) ) ! ~ { ] ^ ^ ~ / ( _ ) ) ) ",
": : < [ } | 1 2 3 1 4 ; 5 6 : : ",
"& 7 8 9 0 3 2 2 2 2 3 a / b & & ",
"& c d e 3 2 f g h i 2 3 j ~ & & ",
"k l m 1 2 n o p p q 8 2 r s k k ",
"7 _ t 3 2 u p p p p v 2 w x 7 7 ",
"y z A 1 2 B C p p D E 2 F G y y ",
"H < I J 2 2 K L M N 2 2 ] 3 H H ",
"6 H O P Q 3 2 2 2 2 2 r R c 6 6 ",
"z z z S T U V 3 3 1 W X Y H z z ",
"Z Z z O `  .j ..d +.@., O z Z Z ",
"#.#.#._ O O O O O O O O _ #.#.#.",
"#.#.#.#.#.Z Z Z Z Z Z #.#.#.#.#.",
"c c c c c c c c c c c c c c c c ",
"! ! ! ! ! ! ! ! ! ! ! ! ! ! ! ! ",
"! ! ! ! ! ! ! ! ! ! ! ! ! ! ! ! ",
"! ! ! ! ! ! ! ! ! ! ! ! ! ! ! ! ",
"l l l l l l l l l l l l l l l l "};
