/* XPM */
static char * title_4_active_xpm[] = {
"16 26 20 1",
" 	c #151516",
".	c #717274",
"+	c #414346",
"@	c #404246",
"#	c #404245",
"$	c #3F4144",
"%	c #3E4044",
"&	c #3E3F43",
"*	c #3D3F42",
"=	c #3C3E42",
"-	c #3C3D41",
";	c #3C3D40",
">	c #3B3D40",
",	c #3A3C40",
"'	c #3A3C3F",
")	c #3A3B3E",
"!	c #393B3E",
"~	c #383A3D",
"{	c #37393C",
"]	c #36383B",
"                ",
"................",
"++++++++++++++++",
"@@@@@@@@@@@@@@@@",
"################",
"################",
"$$$$$$$$$$$$$$$$",
"$$$$$$$$$$$$$$$$",
"%%%%%%%%%%%%%%%%",
"&&&&&&&&&&&&&&&&",
"****************",
"****************",
"================",
"----------------",
";;;;;;;;;;;;;;;;",
">>>>>>>>>>>>>>>>",
",,,,,,,,,,,,,,,,",
"''''''''''''''''",
"))))))))))))))))",
"!!!!!!!!!!!!!!!!",
"!!!!!!!!!!!!!!!!",
"~~~~~~~~~~~~~~~~",
"{{{{{{{{{{{{{{{{",
"{{{{{{{{{{{{{{{{",
"{{{{{{{{{{{{{{{{",
"]]]]]]]]]]]]]]]]"};
