/* XPM */
static char * top_right_active_xpm[] = {
"16 26 29 1",
" 	c None",
".	c #151516",
"+	c #141416",
"@	c #717274",
"#	c #696A6C",
"$	c #313133",
"%	c #232326",
"&	c #414346",
"*	c #434548",
"=	c #4C4E4F",
"-	c #1B1B1C",
";	c #404246",
">	c #434448",
",	c #404245",
"'	c #3F4144",
")	c #3E4044",
"!	c #3E3F43",
"~	c #3D3F42",
"{	c #3C3E42",
"]	c #3C3D41",
"^	c #3C3D40",
"/	c #3B3D40",
"(	c #3A3C40",
"_	c #3A3C3F",
":	c #3A3B3E",
"<	c #393B3E",
"[	c #383A3D",
"}	c #37393C",
"|	c #36383B",
"..............+ ",
"@@@@@@@@@@@@@#$%",
"&&&&&&&&&&&&&*=-",
";;;;;;;;;;;;;;>.",
",,,,,,,,,,,,,,,.",
",,,,,,,,,,,,,,,.",
"'''''''''''''''.",
"'''''''''''''''.",
"))))))))))))))).",
"!!!!!!!!!!!!!!!.",
"~~~~~~~~~~~~~~~.",
"~~~~~~~~~~~~~~~.",
"{{{{{{{{{{{{{{{.",
"]]]]]]]]]]]]]]].",
"^^^^^^^^^^^^^^^.",
"///////////////.",
"(((((((((((((((.",
"_______________.",
":::::::::::::::.",
"<<<<<<<<<<<<<<<.",
"<<<<<<<<<<<<<<<.",
"[[[[[[[[[[[[[[[.",
"}}}}}}}}}}}}}}}.",
"}}}}}}}}}}}}}}}.",
"}}}}}}}}}}}}}}}.",
"|||||||||||||||."};
